<?xml version="1.0" ?>
<svg data-name="Livello 1" height="48" id="Livello_1" viewBox="0 0 48 48" width="48"
    xmlns="http://www.w3.org/2000/svg">
    <defs>
        <style>.cls-1{fill:#3b5999;}.cls-2{fill:#5eb254;}.cls-3{fill:#539649;}.cls-4{fill:#324f7f;}.cls-5{fill:#f2dc36;}.cls-6{fill:#e4c437;}</style>
    </defs>
    <title/>
    <g id="Drive">
        <path class="cls-1" d="M47.636,32.525l-.608-.792H30.317L30.118,34H17.882l.507-1.771-3.8.033L13.8,34H.008a3.938,3.938,0,0,0,.545,1.784l.276.464.009.054L6.92,46.976A2.049,2.049,0,0,0,8.7,48H38.1a4.092,4.092,0,0,0,3.56-2.049l5.819-10.21A3.239,3.239,0,0,0,47.636,32.525Z"/>
        <path class="cls-2" d="M6.92,46.976a2.015,2.015,0,0,0,.718.726h0L13.8,34h4.079L32.13,2.33A1.663,1.663,0,0,0,30.581,0h-13.1a4.082,4.082,0,0,0-3.732,2.385L.347,32.175a3.934,3.934,0,0,0,.171,3.566"/>
        <path class="cls-3" d="M29.1,0,13.8,34h4.079L32.131,2.328A1.661,1.661,0,0,0,30.584,0Z"/>
        <path class="cls-4" d="M43.992,34a3.952,3.952,0,0,1-.51,1.741l-.529.929-5.29,9.281A4.092,4.092,0,0,1,34.1,48h4a4.092,4.092,0,0,0,3.56-2.049l5.29-9.281.529-.929A3.952,3.952,0,0,0,47.992,34Z"/>
        <path class="cls-5" d="M15.89,2.374,15.149.718A4.116,4.116,0,0,1,17.481,0H30.519a4.084,4.084,0,0,1,3.732,2.385L46.359,29.3h0l1.294,2.876A3.928,3.928,0,0,1,47.992,34H30.118L15.89,2.374"/>
        <path class="cls-6" d="M47.653,32.175,46.359,29.3h0L34.251,2.385A4.084,4.084,0,0,0,30.519,0h-4a4.084,4.084,0,0,1,3.732,2.385L42.359,29.3h0l1.294,2.876a3.968,3.968,0,0,1,.339,1.835l4-.01A3.928,3.928,0,0,0,47.653,32.175Z"/>
    </g>
</svg>
