<?xml version="1.0" ?>
<svg data-name="Livello 1" height="48" id="Livello_1" viewBox="0 0 48 48" width="48"
    xmlns="http://www.w3.org/2000/svg">
    <defs>
        <style>.cls-1{fill:#5eb254;}.cls-2{fill:#f2f2f3;}.cls-3{fill:#d8d8d8;}</style>
    </defs>
    <title/>
    <g data-name="Whatsapp 2" id="Whatsapp_2">
        <path class="cls-1" d="M9.016,46.994a13.2,13.2,0,0,0,2.01-9.1l-.1-.889H8a7.008,7.008,0,0,1-7-7v-22A7.008,7.008,0,0,1,8,1H40a7.008,7.008,0,0,1,7,7v22a7.008,7.008,0,0,1-7,7H23.113l-.289.5c-.513.883-1.144,1.841-1.985,3.016A15.461,15.461,0,0,1,9.016,46.994Z"/>
        <path class="cls-2" d="M33.98,25.533l-.04-.3a2.14,2.14,0,0,0-1.548-1.767l-3.76-1.052a2.165,2.165,0,0,0-2.039.481l-.627.571a2.169,2.169,0,0,1-2.51.287l-2.35-1.622a15.241,15.241,0,0,1-2.572-2.238L16.893,18.1a2.117,2.117,0,0,1-.048-2.5l.486-.693a2.118,2.118,0,0,0,.208-2.068L15.985,9.284A2.152,2.152,0,0,0,14.011,8h-.3a2.107,2.107,0,0,0-1.392.506,6.842,6.842,0,0,0-2.132,6.841c1.058,5.09,6.346,9.109,6.346,9.109s5.349,5.162,10.578,5.522a6.957,6.957,0,0,0,6.528-2.973A2.1,2.1,0,0,0,33.98,25.533Z"/>
        <path class="cls-2" d="M40,0H8A8,8,0,0,0,0,8V30a8,8,0,0,0,8,8h2.032a12.167,12.167,0,0,1-1.865,8.448.992.992,0,0,0,.807,1.535l0,.007,2.207.01s.56-.008.82-.005a16.438,16.438,0,0,0,13.654-6.906c.747-1.042,1.435-2.061,2.033-3.089H40a8,8,0,0,0,8-8V8A8,8,0,0,0,40,0ZM21.387,34,20.23,35.99c-.465.8-1.047,1.683-1.83,2.776a12.553,12.553,0,0,1-4.5,3.883,18.307,18.307,0,0,0,.109-5.094L13.609,34H8a4,4,0,0,1-4-4V8A4,4,0,0,1,8,4H36a4,4,0,0,1,4,4V30a4,4,0,0,1-4,4Z"/>
        <path class="cls-3" d="M21.651,41.089a16.4,16.4,0,0,1-12.838,6.87.932.932,0,0,0,.161.024l0,.007,2.207.01s.56-.008.82-.005a16.438,16.438,0,0,0,13.654-6.906c.747-1.042,1.435-2.061,2.033-3.089h-4C23.086,39.028,22.4,40.047,21.651,41.089Z"/>
        <path class="cls-3" d="M40,0H36a8,8,0,0,1,8,8V30a8,8,0,0,1-8,8h4a8,8,0,0,0,8-8V8A8,8,0,0,0,40,0Z"/>
    </g>
</svg>
