<?xml version="1.0" ?>
<svg data-name="Livello 1" height="48" id="Livello_1" viewBox="0 0 48 48" width="48"
    xmlns="http://www.w3.org/2000/svg">
    <defs>
        <style>.cls-1{fill:#db4342;}.cls-2{fill:#b33939;}.cls-3{fill:#f2f2f3;}</style>
    </defs>
    <title/>
    <g id="Youtube">
        <rect class="cls-1" height="48" rx="8" ry="8" width="48"/>
        <path class="cls-2" d="M40,0H36a8,8,0,0,1,8,8V40a8,8,0,0,1-8,8h4a8,8,0,0,0,8-8V8A8,8,0,0,0,40,0Z"/>
        <path class="cls-3" d="M12,14.928V33.072a.95.95,0,0,0,1.386.824l18.1-9.072a.916.916,0,0,0,0-1.648L13.386,14.1A.95.95,0,0,0,12,14.928Z"/>
    </g>
</svg>
