<svg xmlns="http://www.w3.org/2000/svg" xmlns:xlink="http://www.w3.org/1999/xlink" width="684.396" height="419.087" viewBox="0 0 684.396 419.087">
  <defs>
    <linearGradient id="linear-gradient" x1="0.5" x2="0.5" y2="1" gradientUnits="objectBoundingBox">
      <stop offset="0" stop-color="#e142a2"/>
      <stop offset="1" stop-color="#c01f69"/>
    </linearGradient>
    <linearGradient id="linear-gradient-5" x1="0.5" x2="0.5" y2="1" gradientUnits="objectBoundingBox">
      <stop offset="0" stop-color="#ff6aae"/>
      <stop offset="1" stop-color="#ff65ab"/>
    </linearGradient>
    <linearGradient id="linear-gradient-6" x1="0.5" x2="0.5" y2="1" gradientUnits="objectBoundingBox">
      <stop offset="0" stop-color="#f92d8a"/>
      <stop offset="1" stop-color="#f72585"/>
    </linearGradient>
    <linearGradient id="linear-gradient-7" x1="0.5" x2="0.5" y2="1" gradientUnits="objectBoundingBox">
      <stop offset="0" stop-color="#e67a0c"/>
      <stop offset="1" stop-color="#c84505"/>
    </linearGradient>
    <linearGradient id="linear-gradient-9" x1="0.5" x2="0.5" y2="1" gradientUnits="objectBoundingBox">
      <stop offset="0" stop-color="#fd935f"/>
      <stop offset="1" stop-color="#ff8b52"/>
    </linearGradient>
    <linearGradient id="linear-gradient-13" y1="1" y2="0" xlink:href="#linear-gradient-9"/>
    <linearGradient id="linear-gradient-14" x1="0.5" x2="0.5" y2="1" gradientUnits="objectBoundingBox">
      <stop offset="0" stop-color="#ff8c00"/>
      <stop offset="1" stop-color="#ff5300"/>
    </linearGradient>
    <linearGradient id="linear-gradient-15" x1="0.5" x2="0.5" y2="1" gradientUnits="objectBoundingBox">
      <stop offset="0" stop-color="#48cca1"/>
      <stop offset="1" stop-color="#239d68"/>
    </linearGradient>
    <linearGradient id="linear-gradient-20" x1="0.5" x2="0.5" y2="1" gradientUnits="objectBoundingBox">
      <stop offset="0" stop-color="#9bf4ce"/>
      <stop offset="1" stop-color="#93f2c9"/>
    </linearGradient>
    <linearGradient id="linear-gradient-22" x1="0.5" x2="0.5" y2="1" gradientUnits="objectBoundingBox">
      <stop offset="0" stop-color="#6fd2a7"/>
      <stop offset="1" stop-color="#57cc99"/>
    </linearGradient>
    <linearGradient id="linear-gradient-23" x1="0.5" x2="0.5" y2="1" gradientUnits="objectBoundingBox">
      <stop offset="0" stop-color="#56c4d9"/>
      <stop offset="1" stop-color="#2b92b2"/>
    </linearGradient>
    <linearGradient id="linear-gradient-24" y1="1" y2="0" xlink:href="#linear-gradient-23"/>
    <linearGradient id="linear-gradient-28" x1="0.5" x2="0.5" y2="1" gradientUnits="objectBoundingBox">
      <stop offset="0" stop-color="#85e2ff"/>
      <stop offset="1" stop-color="#85e2ff"/>
    </linearGradient>
    <linearGradient id="linear-gradient-29" x1="0.5" x2="0.5" y2="1" gradientUnits="objectBoundingBox">
      <stop offset="0" stop-color="#4dc9f0"/>
      <stop offset="1" stop-color="#4dc9f0"/>
    </linearGradient>
  </defs>
  <g id="Group_59" data-name="Group 59" transform="translate(-374 -2349)">
    <g id="Group_53" data-name="Group 53" transform="translate(525.846 2470.305)">
      <g id="Chart_4" data-name="Chart 4" transform="translate(80.079 0)">
        <path id="Bottom" d="M197.913,85.732h0a62.162,62.162,0,0,0-4.754-4.556,78.855,78.855,0,0,0-11.793-8.338,104.473,104.473,0,0,0-14.293-6.879,129.555,129.555,0,0,0-16.405-5.194,150.449,150.449,0,0,0-18.129-3.283,166.083,166.083,0,0,0-38.928,0,150.425,150.425,0,0,0-18.129,3.283,129.578,129.578,0,0,0-16.405,5.194c-.849.335-1.7.683-2.54,1.036L0,21.315c1.688-.712,3.4-1.409,5.08-2.072A259.058,259.058,0,0,1,37.89,8.855,300.663,300.663,0,0,1,74.148,2.289a332.115,332.115,0,0,1,77.855,0A300.658,300.658,0,0,1,188.26,8.855a259.089,259.089,0,0,1,32.81,10.388A208.973,208.973,0,0,1,249.657,33a157.791,157.791,0,0,1,23.586,16.676,124.137,124.137,0,0,1,9.507,9.113Z" transform="translate(0.001 72.433)" fill="url(#linear-gradient)"/>
        <path id="Outside_Back" data-name="Outside Back" d="M282.754,131.227h0a124.208,124.208,0,0,0-9.509-9.115,157.791,157.791,0,0,0-23.586-16.676,208.915,208.915,0,0,0-28.587-13.758c-3.89-1.533-7.934-3-12.019-4.37l-.1-.032-.04-.013-.04-.013c-.448-.149-.9-.3-1.358-.449-1.56-.511-3.152-1.016-4.733-1.5l-.023-.007-.023-.007-.034-.01-.126-.038c-4.673-1.428-9.491-2.756-14.318-3.947-4.37-1.078-8.878-2.076-13.4-2.966-4-.788-8.1-1.507-12.172-2.137-1.209-.187-2.439-.369-3.655-.542-2.326-.332-4.691-.641-7.031-.92-5.278-.63-10.681-1.137-16.061-1.506l-.049,0-.136-.009-.027,0-.027,0c-7.163-.488-14.464-.745-21.7-.766h-2.465c-7.14.033-14.344.3-21.411.785l-.038,0-.09.006-.1.007c-5.281.368-10.58.867-15.749,1.485-1.773.211-3.571.442-5.344.684l-.06.008-.06.008-.055.008c-1.727.237-3.465.491-5.167.754-4.957.767-9.925,1.661-14.764,2.659l-.024.005-.155.032c-3.572.738-7.148,1.548-10.628,2.407-3.407.84-6.83,1.755-10.174,2.717l-.061.018-.061.018-.028.008-.021.006c-3,.865-6,1.787-8.911,2.743-1.9.622-3.8,1.271-5.66,1.929l-.077.027-.03.011-.022.008-.022.008c-2.606.924-5.211,1.9-7.742,2.9C3.4,92.34,1.687,93.038,0,93.75V21.316c1.673-.706,3.382-1.4,5.081-2.073A259.065,259.065,0,0,1,37.891,8.855,300.623,300.623,0,0,1,74.149,2.289a332.109,332.109,0,0,1,77.855,0,300.627,300.627,0,0,1,36.257,6.565,259.086,259.086,0,0,1,32.811,10.388A208.963,208.963,0,0,1,249.658,33a157.792,157.792,0,0,1,23.586,16.676,124.136,124.136,0,0,1,9.509,9.115Z" transform="translate(0 0)" fill="url(#linear-gradient)"/>
        <path id="Inside_Back" data-name="Inside Back" d="M141.366,101.826h0a62.11,62.11,0,0,0-4.751-4.553c-1.706-1.473-3.556-2.917-5.5-4.293l-.008-.006-.029-.02-.027-.019,0,0c-.648-.458-1.318-.916-1.989-1.362l-.341-.225c-1.254-.823-2.565-1.634-3.9-2.41-1.509-.88-3.088-1.742-4.694-2.562-.863-.441-1.75-.878-2.635-1.3-.917-.436-1.86-.867-2.8-1.283-1.352-.6-2.752-1.18-4.161-1.736-1.31-.516-2.656-1.019-4-1.494-.756-.268-1.537-.536-2.321-.8-1.213-.4-2.459-.795-3.7-1.167-2.088-.624-4.234-1.209-6.378-1.738-1.37-.338-2.773-.662-4.17-.962l-.444-.095-.063-.013A159.283,159.283,0,0,0,57,72.434h-.94A159.3,159.3,0,0,0,23.614,75.79c-.438.092-.9.192-1.369.3h0l-.047.011-.043.01c-1.079.24-2.16.493-3.214.753-2.066.51-4.13,1.07-6.134,1.665l-.046.014-.029.009-.008,0c-1.308.389-2.608.8-3.865,1.215-.842.28-1.684.569-2.5.86-1.288.457-2.574.939-3.821,1.43-.85.335-1.7.683-2.533,1.033V10.655c.835-.352,1.687-.7,2.533-1.033A129.518,129.518,0,0,1,18.938,4.427,150.429,150.429,0,0,1,37.066,1.144a166.087,166.087,0,0,1,38.928,0A150.4,150.4,0,0,1,94.123,4.427a129.545,129.545,0,0,1,16.405,5.195A104.468,104.468,0,0,1,124.821,16.5a78.916,78.916,0,0,1,11.793,8.338,56.866,56.866,0,0,1,8.9,9.57,41.469,41.469,0,0,1,5.627,10.575,34.227,34.227,0,0,1,1.962,11.354h-2.414V66.8h-9.328ZM153.108,66.8h-.14c.09-5.316.14-9.356.14-10.459V66.8Z" transform="translate(56.546 56.337)" fill="url(#linear-gradient)"/>
        <path id="Right" d="M84.841,0V72.431L0,99.373V26.94Z" transform="translate(197.912 58.793)" fill="url(#linear-gradient)"/>
        <path id="Left" d="M0,0,56.546,45.682v72.424L0,72.433Z" transform="translate(0 21.315)" fill="url(#linear-gradient-5)"/>
        <path id="Top" d="M197.914,85.732h0a62.158,62.158,0,0,0-4.754-4.555,78.848,78.848,0,0,0-11.793-8.338,104.475,104.475,0,0,0-14.293-6.879,129.621,129.621,0,0,0-16.405-5.194,150.461,150.461,0,0,0-18.129-3.283,166.092,166.092,0,0,0-38.928,0,150.464,150.464,0,0,0-18.129,3.283,129.551,129.551,0,0,0-16.405,5.194c-.854.337-1.709.685-2.54,1.036L0,21.316c1.678-.708,3.387-1.405,5.081-2.073A259.054,259.054,0,0,1,37.891,8.855,300.648,300.648,0,0,1,74.148,2.289a332.115,332.115,0,0,1,77.855,0,300.669,300.669,0,0,1,36.258,6.565,259.055,259.055,0,0,1,32.81,10.388A208.984,208.984,0,0,1,249.658,33a157.791,157.791,0,0,1,23.586,16.676,124.1,124.1,0,0,1,9.508,9.113Z" transform="translate(0.001 0)" fill="url(#linear-gradient-6)"/>
      </g>
      <g id="Chart_3" data-name="Chart 3" transform="translate(258.587 34.646)">
        <path id="Bottom-2" data-name="Bottom" d="M0,95.32q1.457-.783,2.856-1.6a78.89,78.89,0,0,0,11.793-8.337,56.865,56.865,0,0,0,8.9-9.57,41.486,41.486,0,0,0,5.627-10.575,34.236,34.236,0,0,0,1.962-11.354A34.236,34.236,0,0,0,29.181,42.53a41.492,41.492,0,0,0-5.627-10.575A52.3,52.3,0,0,0,19.4,26.942L104.24,0a104.66,104.66,0,0,1,8.3,10.026,89.3,89.3,0,0,1,6.5,10.352,77.765,77.765,0,0,1,4.76,10.8,70.341,70.341,0,0,1,2.927,11.188,67.029,67.029,0,0,1,0,23.04A70.361,70.361,0,0,1,123.8,76.592a77.765,77.765,0,0,1-4.76,10.8,89.366,89.366,0,0,1-6.5,10.352,113.741,113.741,0,0,1-17.809,19.139,157.754,157.754,0,0,1-23.586,16.676q-2.8,1.632-5.712,3.2Z" transform="translate(0.003 96.578)" fill="url(#linear-gradient-7)"/>
        <path id="Left-2" data-name="Left" d="M84.841,0V96.575L0,123.517V26.94Z" transform="translate(19.404 0.002)" fill="url(#linear-gradient-7)"/>
        <path id="Inside_Back-2" data-name="Inside Back" d="M11.742,123.291h0A34.27,34.27,0,0,0,9.78,112.168a41.492,41.492,0,0,0-5.627-10.575A52.508,52.508,0,0,0,0,96.578V0A52.517,52.517,0,0,1,4.153,5.015,41.48,41.48,0,0,1,9.78,15.59a34.235,34.235,0,0,1,1.962,11.354c0,.255,0,.518-.01.8h.01Z" transform="translate(19.404 26.94)" fill="url(#linear-gradient-9)"/>
        <path id="Outside_Back-2" data-name="Outside Back" d="M23.479,150.134h0a67.375,67.375,0,0,0-1-11.194,70.387,70.387,0,0,0-2.927-11.187,77.724,77.724,0,0,0-4.76-10.8A89.324,89.324,0,0,0,8.3,106.6,105.155,105.155,0,0,0,0,96.579V0A105.026,105.026,0,0,1,8.3,10.024a89.248,89.248,0,0,1,6.5,10.352,77.752,77.752,0,0,1,4.76,10.8,70.4,70.4,0,0,1,2.927,11.188,67.378,67.378,0,0,1,1,11.118v96.654Z" transform="translate(104.246 0.002)" fill="url(#linear-gradient-7)"/>
        <path id="Inside_front" data-name="Inside front" d="M0,137.785V41.207A83.187,83.187,0,0,0,13.187,32.5a58.793,58.793,0,0,0,9.906-10.171l.005-.007a42.037,42.037,0,0,0,5.965-10.858A34.324,34.324,0,0,0,31.146,0V96.347a34.33,34.33,0,0,1-2.174,11.941,42.439,42.439,0,0,1-6.218,11.063,59.464,59.464,0,0,1-9.809,9.92A83.483,83.483,0,0,1,0,137.784Z" transform="translate(0 54.115)" fill="url(#linear-gradient-7)"/>
        <path id="Outside_Front" data-name="Outside Front" d="M0,179.241H0V82.661c1.47-.79,2.942-1.606,4.374-2.426l.017-.01.03-.017.085-.049.025-.014.025-.014.071-.041.078-.045.01-.006A164.42,164.42,0,0,0,24.429,66.8l.015-.012.076-.06.024-.019.024-.019.039-.031.013-.01.094-.075.007-.006.007-.006A114.721,114.721,0,0,0,49.214,40.624v0A86.686,86.686,0,0,0,54.176,32.2,70.463,70.463,0,0,0,62.289,0V96.367a67.4,67.4,0,0,1-1.106,12.127,70.821,70.821,0,0,1-3.241,11.754,79.056,79.056,0,0,1-5.263,11.315,91.9,91.9,0,0,1-7.172,10.81,118.912,118.912,0,0,1-19.616,19.84A166.964,166.964,0,0,1,0,179.241Z" transform="translate(65.435 54.095)" fill="url(#linear-gradient-7)"/>
        <path id="Right-2" data-name="Right" d="M0-246.39l65.44,41.436,0-96.577L0-342.967Z" transform="translate(0 438.288)" fill="url(#linear-gradient-13)"/>
        <path id="Top-2" data-name="Top" d="M0,95.32q1.458-.783,2.858-1.6A78.872,78.872,0,0,0,14.65,85.383a56.878,56.878,0,0,0,8.9-9.57,41.486,41.486,0,0,0,5.627-10.575,34.236,34.236,0,0,0,1.962-11.354A34.234,34.234,0,0,0,29.182,42.53a41.492,41.492,0,0,0-5.627-10.575A52.321,52.321,0,0,0,19.4,26.942L104.242,0a104.658,104.658,0,0,1,8.3,10.026,89.3,89.3,0,0,1,6.5,10.352,77.768,77.768,0,0,1,4.76,10.8,70.341,70.341,0,0,1,2.927,11.188,67.028,67.028,0,0,1,0,23.04A70.361,70.361,0,0,1,123.8,76.592a77.767,77.767,0,0,1-4.76,10.8,89.367,89.367,0,0,1-6.5,10.352,113.741,113.741,0,0,1-17.809,19.139,157.777,157.777,0,0,1-23.586,16.676q-2.8,1.633-5.715,3.2Z" transform="translate(0.002 0)" fill="url(#linear-gradient-14)"/>
      </g>
      <g id="Chart_2" data-name="Chart 2" transform="translate(0 45.46)">
        <path id="Bottom-3" data-name="Bottom" d="M4.98,116.889h0c-.372-.936-.727-1.886-1.055-2.822A70.305,70.305,0,0,1,1,102.879a67.029,67.029,0,0,1,0-23.04A70.306,70.306,0,0,1,3.924,68.651a77.7,77.7,0,0,1,4.76-10.8,89.28,89.28,0,0,1,6.5-10.352A113.757,113.757,0,0,1,32.988,28.362,157.786,157.786,0,0,1,56.574,11.686,205.047,205.047,0,0,1,80.08,0l56.538,45.679a102.53,102.53,0,0,0-11.753,5.843,78.9,78.9,0,0,0-11.793,8.337,56.891,56.891,0,0,0-8.9,9.57A41.483,41.483,0,0,0,98.54,80a33.83,33.83,0,0,0,0,22.708c.165.469.342.944.528,1.411L4.98,116.889Z" transform="translate(0 48.289)" fill="url(#linear-gradient-15)"/>
        <path id="Right-3" data-name="Right" d="M0,0,56.546,45.682V93.961L0,48.288Z" transform="translate(80.079 0)" fill="url(#linear-gradient-15)"/>
        <path id="Inside_front-2" data-name="Inside front" d="M2.491,60.652h0c-.186-.468-.364-.943-.528-1.411A34.235,34.235,0,0,1,0,47.886V0H0a34.357,34.357,0,0,0,2.15,11.48c.108.293.222.591.338.884V60.651Z" transform="translate(96.578 91.761)" fill="url(#linear-gradient-15)"/>
        <path id="Inside_Back-3" data-name="Inside Back" d="M0,93.972ZM0,46.085H0c0-.134,0-.268,0-.4A34.236,34.236,0,0,1,1.962,34.329,41.486,41.486,0,0,1,7.59,23.754a56.866,56.866,0,0,1,8.9-9.57A78.9,78.9,0,0,1,28.287,5.846,102.347,102.347,0,0,1,40.048,0V48.288q-1.312.553-2.592,1.132-3.535,1.6-6.814,3.387l-.091.05-.027.015q-1.136.622-2.237,1.264a78.883,78.883,0,0,0-11.793,8.337,56.893,56.893,0,0,0-8.9,9.57A41.511,41.511,0,0,0,1.962,82.618,34.236,34.236,0,0,0,0,93.972Z" transform="translate(96.578 45.676)" fill="url(#linear-gradient-15)"/>
        <path id="Outside_Back-3" data-name="Outside Back" d="M0,139.321H0V91.358a67.324,67.324,0,0,1,1-11.52A70.335,70.335,0,0,1,3.924,68.65a77.744,77.744,0,0,1,4.76-10.8,89.253,89.253,0,0,1,6.5-10.352A113.756,113.756,0,0,1,32.988,28.361,157.776,157.776,0,0,1,56.574,11.685,205.054,205.054,0,0,1,80.079,0V48.289A204.949,204.949,0,0,0,56.574,59.975,157.757,157.757,0,0,0,32.988,76.65c-2.8,2.418-5.477,4.936-7.953,7.483C23.994,85.2,22.971,86.3,22,87.38c-.725.807-1.445,1.631-2.139,2.452-1.655,1.955-3.229,3.959-4.678,5.958a89.3,89.3,0,0,0-6.5,10.352,77.686,77.686,0,0,0-4.76,10.8A70.344,70.344,0,0,0,1,128.127,67.4,67.4,0,0,0,0,139.321Z" transform="translate(0 0.001)" fill="url(#linear-gradient-15)"/>
        <path id="Outside_Front-2" data-name="Outside Front" d="M3.924,71A70.36,70.36,0,0,1,1,59.809a67.325,67.325,0,0,1-1-11.52V0A67.37,67.37,0,0,0,1,11.52,70.3,70.3,0,0,0,3.924,22.708c.329.937.684,1.886,1.058,2.827v48.29Q4.421,72.412,3.924,71Z" transform="translate(0 91.359)" fill="url(#linear-gradient-20)"/>
        <path id="Left-3" data-name="Left" d="M0,61.047,94.087,48.281,94.089,0,0,12.77Z" transform="translate(4.982 104.131)" fill="url(#linear-gradient-15)"/>
        <path id="Top-3" data-name="Top" d="M4.985,116.9h0c-.374-.94-.731-1.894-1.061-2.833A70.34,70.34,0,0,1,1,102.879a67.029,67.029,0,0,1,0-23.04A70.311,70.311,0,0,1,3.924,68.651a77.7,77.7,0,0,1,4.76-10.8,89.3,89.3,0,0,1,6.5-10.352A113.757,113.757,0,0,1,32.988,28.361,157.765,157.765,0,0,1,56.574,11.686,205.01,205.01,0,0,1,80.08,0l56.538,45.679a102.52,102.52,0,0,0-11.753,5.843,78.9,78.9,0,0,0-11.793,8.337,56.862,56.862,0,0,0-8.9,9.57A41.48,41.48,0,0,0,98.54,80a33.83,33.83,0,0,0,0,22.708c.165.47.343.947.53,1.417Z" transform="translate(0 0)" fill="url(#linear-gradient-22)"/>
      </g>
      <g id="Chart_1" data-name="Chart 1" transform="translate(4.98 173.734)">
        <path id="Bottom-4" data-name="Bottom" d="M149.249,97.62a300.694,300.694,0,0,1-36.258-6.565,259.063,259.063,0,0,1-32.81-10.388A208.928,208.928,0,0,1,51.594,66.908,157.794,157.794,0,0,1,28.008,50.232,113.756,113.756,0,0,1,10.2,31.093,89.309,89.309,0,0,1,3.7,20.741,78.988,78.988,0,0,1,0,12.765L94.088,0a42.245,42.245,0,0,0,5.1,9.164,56.865,56.865,0,0,0,8.9,9.57,78.9,78.9,0,0,0,11.793,8.338,104.474,104.474,0,0,0,14.293,6.879,129.516,129.516,0,0,0,16.405,5.195,150.439,150.439,0,0,0,18.129,3.283,164.864,164.864,0,0,0,19.464,1.144,164.857,164.857,0,0,0,19.464-1.144,150.425,150.425,0,0,0,18.129-3.283,129.5,129.5,0,0,0,16.405-5.195,107.3,107.3,0,0,0,11.437-5.28l65.435,41.436a214.59,214.59,0,0,1-22.875,10.56,259.063,259.063,0,0,1-32.81,10.388A300.673,300.673,0,0,1,227.1,97.62a329.7,329.7,0,0,1-38.928,2.289A329.7,329.7,0,0,1,149.249,97.62Z" transform="translate(0 24.138)" fill="url(#linear-gradient-23)"/>
        <path id="Right-4" data-name="Right" d="M0-138.824,65.44-97.388l0-24.144L0-162.967Z" transform="translate(253.607 191.633)" fill="url(#linear-gradient-24)"/>
        <path id="Left-4" data-name="Left" d="M0,36.9,94.087,24.137,94.089,0,0,12.77Z" transform="translate(0.002 0.001)" fill="url(#linear-gradient-23)"/>
        <path id="Inside_front-3" data-name="Inside front" d="M94.087,67.71a164.852,164.852,0,0,1-19.464-1.144,150.444,150.444,0,0,1-18.129-3.283,129.573,129.573,0,0,1-16.405-5.194A104.5,104.5,0,0,1,25.8,51.21,78.872,78.872,0,0,1,14,42.872,56.848,56.848,0,0,1,5.1,33.3,42.285,42.285,0,0,1,0,24.141V0A39.99,39.99,0,0,0,2.09,4.423,53.248,53.248,0,0,0,14.883,19.474,87.274,87.274,0,0,0,34.465,31.551a126.47,126.47,0,0,0,24.948,8.274l.013,0,.01,0,.13.029.13.029.045.01.026.006.043.01.057.012.015,0,.044.01h0l.112.025.034.008h.007l.087.019.018,0,.018,0,.1.023.011,0,.01,0,.268.058.007,0a159.183,159.183,0,0,0,33.481,3.478A160.97,160.97,0,0,0,123.51,40.9h.01l.125-.023.017,0,.132-.025.013,0h.007l.073-.014.027-.005.028-.005.028-.005.029-.005.038-.007.033-.007.027-.005.108-.021.031-.006.039-.007.047-.009.01,0,.071-.014.011,0,.016,0a131.375,131.375,0,0,0,26.58-7.984c2.958-1.261,5.82-2.633,8.508-4.077V52.811a107.521,107.521,0,0,1-11.434,5.278,129.573,129.573,0,0,1-16.405,5.194,150.444,150.444,0,0,1-18.129,3.283A164.852,164.852,0,0,1,94.087,67.71Z" transform="translate(94.089 0)" fill="url(#linear-gradient-23)"/>
        <path id="Inside_Back-4" data-name="Inside Back" d="M0,11.3ZM0,.264,1.943,0A34.228,34.228,0,0,0,0,11.3Z" transform="translate(91.598 0.075)" fill="url(#linear-gradient-23)"/>
        <path id="Outside_Front-3" data-name="Outside Front" d="M188.174,111.285a319.193,319.193,0,0,1-65.267-6.594A275.29,275.29,0,0,1,93.6,96.879,234.56,234.56,0,0,1,67.164,86.439,190.11,190.11,0,0,1,44.095,73.66,147.152,147.152,0,0,1,24.883,58.826a110.711,110.711,0,0,1-14.862-16.6A84.366,84.366,0,0,1,0,24.147V0L.077.192v0L.089.223l.024.06L.122.306C.7,1.736,1.33,3.179,2,4.6l0,.006.03.063.01.021.01.021C2.575,5.8,3.129,6.9,3.7,7.971,4.363,9.21,5.074,10.465,5.815,11.7l0,0,.075.124.018.03.009.016,0,0,.038.062.069.114,0,0c.409.675.833,1.353,1.26,2.015l.005.008.005.008.023.036.024.036.064.1.011.017.011.017C8.31,15.647,9.239,17,10.2,18.323c.98,1.352,2.023,2.714,3.1,4.049l.031.039.012.015.025.03a114.013,114.013,0,0,0,10.5,11.274l.01.01,0,0,.019.018.019.018c1.316,1.238,2.691,2.477,4.088,3.683,1.311,1.132,2.677,2.266,4.06,3.371A159.345,159.345,0,0,0,48.039,52.01l.091.056.039.024.011.007.006,0c1.116.685,2.263,1.371,3.407,2.038,1.045.609,2.117,1.22,3.185,1.816l.125.07.012.007.012.007A210.079,210.079,0,0,0,77.3,66.741l.051.021.015.006.054.022.08.033.088.036.06.024.042.017c.824.336,1.661.671,2.488,1,.922.363,1.863.727,2.8,1.082l.024.009.024.009.053.02.085.032.042.016.105.04.038.014.016.006a272.628,272.628,0,0,0,48.674,13.181,322.909,322.909,0,0,0,54.9,4.831h2.474a329.7,329.7,0,0,0,36.931-2.2,302.5,302.5,0,0,0,34.541-6.056l.042-.01.016,0,.049-.012.127-.03.182-.043.021-.005.021-.005c.67-.16,1.349-.325,2.016-.49s1.33-.331,2-.5l.028-.007.042-.011.029-.007.113-.029.022-.006.135-.035.062-.016a260.928,260.928,0,0,0,26.2-8.174l.033-.012.013,0,.073-.027.013,0c1.36-.507,2.723-1.03,4.052-1.554s2.645-1.057,3.948-1.6l.162-.067h.005c6.538-2.723,12.85-5.715,18.76-8.893V81.481a218.7,218.7,0,0,1-27.867,12.463,265.308,265.308,0,0,1-31.54,9.378,303.621,303.621,0,0,1-34.554,5.908A330.407,330.407,0,0,1,188.174,111.285Z" transform="translate(0.002 12.763)" fill="url(#linear-gradient-28)"/>
        <path id="Top-4" data-name="Top" d="M149.244,97.614a300.675,300.675,0,0,1-36.257-6.565A259.074,259.074,0,0,1,80.176,80.66,208.966,208.966,0,0,1,51.589,66.9,157.749,157.749,0,0,1,28,50.226,113.755,113.755,0,0,1,10.194,31.087,89.283,89.283,0,0,1,3.7,20.735,78.986,78.986,0,0,1,0,12.771L94.085,0a42.252,42.252,0,0,0,5.1,9.158,56.881,56.881,0,0,0,8.9,9.57,78.871,78.871,0,0,0,11.793,8.338,104.492,104.492,0,0,0,14.293,6.879,129.57,129.57,0,0,0,16.405,5.195,150.435,150.435,0,0,0,18.129,3.283,164.865,164.865,0,0,0,19.464,1.144,164.864,164.864,0,0,0,19.464-1.144,150.423,150.423,0,0,0,18.129-3.283,129.534,129.534,0,0,0,16.405-5.195A107.3,107.3,0,0,0,253.6,28.665L319.038,70.1A214.631,214.631,0,0,1,296.166,80.66a259.072,259.072,0,0,1-32.811,10.388A300.663,300.663,0,0,1,227.1,97.614,329.632,329.632,0,0,1,188.171,99.9,329.627,329.627,0,0,1,149.244,97.614Z" transform="translate(0.005 0)" fill="url(#linear-gradient-29)"/>
      </g>
    </g>
    <path id="Path_30" data-name="Path 30" d="M2924.486,2560.18V2516.2l-102.957-24.563" transform="translate(-2337.814 16.618)" fill="none" stroke="#fff" stroke-width="1"/>
    <path id="Path_31" data-name="Path 31" d="M2926.968,2556.452v-32.814l-126.745,35.22" transform="translate(-2283.53 153.211)" fill="none" stroke="#fff" stroke-width="1"/>
    <g id="Group_54" data-name="Group 54" transform="translate(981.396 2470.736)">
      <text id="_18_" data-name="18%" transform="translate(0 30)" fill="#ff6900" font-size="31" font-family="Montserrat-SemiBold, Montserrat" font-weight="600"><tspan x="0" y="0">18%</tspan></text>
      <text id="_18-35_Year" data-name="18-35 Year" transform="translate(0 62.413)" fill="#ccc" font-size="15" font-family="Montserrat-Regular, Montserrat"><tspan x="0" y="0">18-35 Year</tspan></text>
    </g>
    <g id="Group_57" data-name="Group 57" transform="translate(374 2461.765)">
      <text id="_18_2" data-name="18%" transform="translate(24.347 30)" fill="#64cfa0" font-size="31" font-family="Montserrat-SemiBold, Montserrat" font-weight="600"><tspan x="0" y="0">18%</tspan></text>
      <text id="_35-49_Year" data-name="35-49 Year" transform="translate(0 61.131)" fill="#ccc" font-size="15" font-family="Montserrat-Regular, Montserrat"><tspan x="0" y="0">35-49 Year</tspan></text>
    </g>
    <g id="Group_58" data-name="Group 58" transform="translate(398.347 2678.326)">
      <text id="_18_3" data-name="18%" transform="translate(0 30)" fill="#4dc9f0" font-size="31" font-family="Montserrat-SemiBold, Montserrat" font-weight="600"><tspan x="0" y="0">18%</tspan></text>
      <text id="_50_Year" data-name="50 Year" transform="translate(1.281 61.131)" fill="#ccc" font-size="15" font-family="Montserrat-Regular, Montserrat"><tspan x="0" y="0">50 Year</tspan></text>
    </g>
    <g id="Group_55" data-name="Group 55" transform="translate(768.679 2349)">
      <text id="_21_" data-name="21%" transform="translate(0 30)" fill="#f82a88" font-size="31" font-family="Montserrat-SemiBold, Montserrat" font-weight="600"><tspan x="0" y="0">21%</tspan></text>
      <text id="_0-18_Year" data-name="0-18 Year" transform="translate(0 61.131)" fill="#ccc" font-size="15" font-family="Montserrat-Regular, Montserrat"><tspan x="0" y="0">0-18 Year</tspan></text>
    </g>
    <path id="Path_29" data-name="Path 29" d="M2913.742,2561.386v-43.979l11.9-36.12" transform="translate(-2176.048 -64.294)" fill="none" stroke="#fff" stroke-width="1"/>
    <path id="Path_28" data-name="Path 28" d="M2821.53,2561.345v-43.979l102.957-35.728" transform="translate(-1961.257 15.453)" fill="none" stroke="#fff" stroke-width="1"/>
    <g id="Ellipse_2" data-name="Ellipse 2" transform="translate(855.058 2573.635)" fill="#fff">
      <path d="M5.315,0A7.5,7.5,0,0,1,7.252.247,5.568,5.568,0,0,1,8.817.919a3.38,3.38,0,0,1,1.038,1,2.129,2.129,0,0,1,.352,1.23,2.269,2.269,0,0,1-.438,1.235A3.786,3.786,0,0,1,8.652,5.4a6.063,6.063,0,0,1-1.63.684,7.74,7.74,0,0,1-1.975.251A7.5,7.5,0,0,1,3.094,6.08,5.533,5.533,0,0,1,1.523,5.4,3.341,3.341,0,0,1,.493,4.384,2.116,2.116,0,0,1,.159,3.15,2.289,2.289,0,0,1,.615,1.921a3.827,3.827,0,0,1,1.122-1A6.094,6.094,0,0,1,3.358.247,7.745,7.745,0,0,1,5.315,0Z" stroke="none"/>
      <path d="M 5.074388980865479 5.695319175720215 C 5.631296157836914 5.695389270782471 6.165180683135986 5.623820781707764 6.653497695922852 5.494451522827148 C 7.141640663146973 5.365128993988037 7.584071159362793 5.178093433380127 7.958374500274658 4.947215557098389 C 8.332426071166992 4.716494560241699 8.638337135314941 4.442056179046631 8.853841781616211 4.137751579284668 C 9.069150924682617 3.833727598190308 9.19417667388916 3.499953269958496 9.206796646118164 3.150224685668945 C 9.219402313232422 2.800872564315796 9.11866283416748 2.468155860900879 8.925963401794434 2.165685415267944 C 8.733449935913086 1.863503336906433 8.449117660522461 1.591459155082703 8.094223976135254 1.363102316856384 C 7.739592552185059 1.134913682937622 7.314410209655762 0.9502889513969421 6.839786529541016 0.8227514028549194 C 6.36536979675293 0.6952693462371826 5.841391086578369 0.6247808933258057 5.288815498352051 0.6248338222503662 C 4.736266613006592 0.6248868107795715 4.20639705657959 0.6954696774482727 3.721305370330811 0.82302325963974 C 3.236042261123657 0.9506218433380127 2.795414924621582 1.135277390480042 2.42165207862854 1.363463163375854 C 2.047636747360229 1.591802477836609 1.740471363067627 1.863795280456543 1.522531032562256 2.165897130966187 C 1.304390668869019 2.468275785446167 1.175595164299011 2.800879240036011 1.158660054206848 3.150108575820923 C 1.141706705093384 3.499714136123657 1.238430380821228 3.833381175994873 1.42789351940155 4.137324810028076 C 1.617537260055542 4.441559314727783 1.900065541267395 4.715962886810303 2.254408836364746 4.946686267852783 C 2.609014749526978 5.177581310272217 3.035451412200928 5.364673137664795 3.512500286102295 5.49408483505249 C 3.989758729934692 5.623554706573486 4.517508506774902 5.695249080657959 5.074388980865479 5.695319175720215 M 5.047512531280518 6.330868721008301 C 4.350464344024658 6.330762386322021 3.690417766571045 6.241239070892334 3.093902587890625 6.079505443572998 C 2.497714519500732 5.917860507965088 1.965244770050049 5.684155464172363 1.522798776626587 5.395636081695557 C 1.080761790275574 5.107384204864502 0.72872394323349 4.764512538909912 0.49275803565979 4.384225845336914 C 0.2570732831954956 4.004392147064209 0.1372341811656952 3.587313175201416 0.159109964966774 3.150094270706177 C 0.1809562891721725 2.71346378326416 0.3420789241790771 2.298044443130493 0.6145212650299072 1.920652627944946 C 0.8866524696350098 1.543691754341125 1.269917726516724 1.204575896263123 1.736580014228821 0.9200369119644165 C 2.202849626541138 0.6357366442680359 2.752540349960327 0.4058215022087097 3.358139753341675 0.2469969391822815 C 3.963472843170166 0.08824212104082108 4.624938488006592 0.000443966273451224 5.315224647521973 0.0003590008709579706 C 6.005551338195801 0.000274030287982896 6.659714698791504 0.08792057633399963 7.251798152923584 0.2465595453977585 C 7.844202518463135 0.4052848219871521 8.374715805053711 0.6351479887962341 8.817203521728516 0.919449508190155 C 9.260098457336426 1.204012393951416 9.614947319030762 1.543205261230469 9.855391502380371 1.920289874076843 C 10.09611988067627 2.297821998596191 10.22222518920898 2.713417291641235 10.2071361541748 3.150238990783691 C 10.1920280456543 3.587649822235107 10.03678703308105 4.004897594451904 9.76876163482666 4.384859085083008 C 9.500428199768066 4.765256881713867 9.119120597839355 5.108186721801758 8.652400970458984 5.396437644958496 C 8.18528938293457 5.684933185577393 7.632788181304932 5.918555736541748 7.022695541381836 6.08006477355957 C 6.412332057952881 6.241645812988281 5.744603157043457 6.330976009368896 5.047512531280518 6.330868721008301 Z" stroke="none" fill="#ff8e57"/>
    </g>
    <g id="Ellipse_4" data-name="Ellipse 4" transform="translate(581.499 2574.133)" fill="#fff">
      <path d="M5.342,0A8.826,8.826,0,0,1,7.277.208,6.13,6.13,0,0,1,8.84.774a3.174,3.174,0,0,1,1.035.842,1.586,1.586,0,0,1,.348,1.036,1.737,1.737,0,0,1-.442,1.04,3.654,3.654,0,0,1-1.12.852,6.751,6.751,0,0,1-1.633.576,9.13,9.13,0,0,1-1.977.211A8.812,8.812,0,0,1,3.1,5.12a6.077,6.077,0,0,1-1.569-.576A3.118,3.118,0,0,1,.5,3.691,1.569,1.569,0,0,1,.174,2.652,1.764,1.764,0,0,1,.635,1.617,3.714,3.714,0,0,1,1.761.775,6.8,6.8,0,0,1,3.385.208,9.137,9.137,0,0,1,5.342,0Z" stroke="none"/>
      <path d="M 5.079342842102051 4.796182155609131 C 5.636475086212158 4.79624080657959 6.17084264755249 4.735928058624268 6.659824848175049 4.626909255981445 C 7.148615837097168 4.517932415008545 7.591864109039307 4.360330581665039 7.967093467712402 4.165797233581543 C 8.342044830322266 3.971407890319824 8.648963928222656 3.740202665328979 8.865535736083984 3.483856916427612 C 9.081892967224121 3.227768898010254 9.208036422729492 2.946647167205811 9.221808433532715 2.6521155834198 C 9.235565185546875 2.357930898666382 9.135926246643066 2.077781200408936 8.944243431091309 1.823122143745422 C 8.752762794494629 1.568727254867554 8.469394683837891 1.339722752571106 8.115348815917969 1.147507190704346 C 7.761588096618652 0.9554458260536194 7.337163925170898 0.8000602126121521 6.8631272315979 0.6927254796028137 C 6.389315128326416 0.5854415893554688 5.865757465362549 0.5261228084564209 5.313352584838867 0.5261673331260681 C 4.760974407196045 0.5262119174003601 4.230985641479492 0.5856100916862488 3.745520830154419 0.6929543614387512 C 3.259867191314697 0.8003403544425964 2.818581104278564 0.9557519555091858 2.443937540054321 1.147810935974121 C 2.06901741027832 1.340011715888977 1.760723948478699 1.568972826004028 1.541491508483887 1.823300242424011 C 1.322039365768433 2.077882289886475 1.191778898239136 2.357936859130859 1.173298001289368 2.652018070220947 C 1.154795527458191 2.946445941925049 1.250055074691772 3.227477073669434 1.43821108341217 3.483497381210327 C 1.626562595367432 3.739783525466919 1.907968878746033 3.970959424972534 2.261420488357544 4.165350437164307 C 2.61515736579895 4.359898567199707 3.040956258773804 4.517548084259033 3.517646074295044 4.62660026550293 C 3.994562387466431 4.735703945159912 4.522237300872803 4.796123027801514 5.079342842102051 4.796182155609131 M 5.049987316131592 5.331827640533447 C 4.35259485244751 5.331737995147705 3.69258713722229 5.25628137588501 3.096457004547119 5.119965553283691 C 2.500680685043335 4.983730316162109 1.968987464904785 4.786773681640625 1.527625918388367 4.543639659881592 C 1.086708545684814 4.300750255584717 0.7360963821411133 4.011863231658936 0.5017856359481812 3.691484451293945 C 0.2677790224552155 3.371521711349487 0.1498263627290726 3.020223379135132 0.1737014800310135 2.652005910873413 C 0.1975415199995041 2.284329891204834 0.3605480194091797 1.934556603431702 0.6346692442893982 1.61683714389801 C 0.908448338508606 1.299514293670654 1.293139815330505 1.014077663421631 1.760931611061096 0.7745999097824097 C 2.228292942047119 0.5353423357009888 2.778779745101929 0.3418673574924469 3.38482666015625 0.2082228809595108 C 3.990580081939697 0.07464306056499481 4.652137279510498 0.0007703095325268805 5.342150211334229 0.0006988240638747811 C 6.032203674316406 0.0006273342878557742 6.685786724090576 0.07437252253293991 7.277077674865723 0.2078548520803452 C 7.868714809417725 0.3414157927036285 8.398263931274414 0.5348469614982605 8.839664459228516 0.7741055488586426 C 9.281505584716797 1.013603329658508 9.635178565979004 1.299104928970337 9.874373435974121 1.616531848907471 C 10.11387634277344 1.934369564056396 10.23866176605225 2.284290790557861 10.22219562530518 2.652127981185913 C 10.20570659637451 3.020507097244263 10.04912376403809 3.371947526931763 9.779830932617188 3.692018032073975 C 9.510200500488281 4.012490272521973 9.127652168273926 4.301426887512207 8.659811973571777 4.544315338134766 C 8.19153881072998 4.787429332733154 7.637991905212402 4.984315395355225 7.027051448822021 5.120436668395996 C 6.415811061859131 5.2566237449646 5.747422218322754 5.331917762756348 5.049987316131592 5.331827640533447 Z" stroke="none" fill="#43c599"/>
    </g>
    <g id="Ellipse_5" data-name="Ellipse 5" transform="translate(638.266 2706.998)" fill="#fff">
      <path d="M5.342,0A8.826,8.826,0,0,1,7.277.208,6.13,6.13,0,0,1,8.84.774a3.174,3.174,0,0,1,1.035.842,1.586,1.586,0,0,1,.348,1.036,1.737,1.737,0,0,1-.442,1.04,3.654,3.654,0,0,1-1.12.852,6.751,6.751,0,0,1-1.633.576,9.13,9.13,0,0,1-1.977.211A8.812,8.812,0,0,1,3.1,5.12a6.077,6.077,0,0,1-1.569-.576A3.118,3.118,0,0,1,.5,3.691,1.569,1.569,0,0,1,.174,2.652,1.764,1.764,0,0,1,.635,1.617,3.714,3.714,0,0,1,1.761.775,6.8,6.8,0,0,1,3.385.208,9.137,9.137,0,0,1,5.342,0Z" stroke="none"/>
      <path d="M 5.079401969909668 4.796184062957764 C 5.636534690856934 4.796242713928223 6.170902252197266 4.735930442810059 6.659884929656982 4.626911163330078 C 7.148675441741943 4.517934322357178 7.591923713684082 4.360332489013672 7.967153549194336 4.165799140930176 C 8.342104911804199 3.971409559249878 8.64902400970459 3.740204572677612 8.865595817565918 3.483858346939087 C 9.081953048706055 3.227770566940308 9.208097457885742 2.946648597717285 9.221868515014648 2.652117013931274 C 9.235626220703125 2.357932090759277 9.135987281799316 2.077782392501831 8.944304466247559 1.823122978210449 C 8.752823829650879 1.568727970123291 8.469455718994141 1.339723467826843 8.115408897399902 1.147507786750793 C 7.761648654937744 0.9554463028907776 7.33722448348999 0.8000606298446655 6.863187789916992 0.6927258372306824 C 6.389375686645508 0.5854418277740479 5.865818500518799 0.526123046875 5.313413619995117 0.5261675715446472 C 4.761034965515137 0.5262121558189392 4.231046199798584 0.5856103301048279 3.745581388473511 0.6929546594619751 C 3.259927749633789 0.8003407716751099 2.818641662597656 0.9557523727416992 2.443998336791992 1.147811532020569 C 2.069077968597412 1.340012311935425 1.760784387588501 1.568973541259766 1.541551828384399 1.823301076889038 C 1.322099685668945 2.077883243560791 1.191839218139648 2.357937812805176 1.173358201980591 2.652019262313843 C 1.154855489730835 2.946447134017944 1.250115036964417 3.227478504180908 1.438271045684814 3.483498811721802 C 1.626622557640076 3.739785194396973 1.908028721809387 3.970961093902588 2.261480331420898 4.165352821350098 C 2.615217208862305 4.35990047454834 3.041016101837158 4.517549991607666 3.517705678939819 4.626602172851562 C 3.994622230529785 4.735706329345703 4.52229642868042 4.796124935150146 5.079401969909668 4.796184062957764 M 5.050046920776367 5.331830024719238 C 4.352654457092285 5.331740379333496 3.692646980285645 5.256283760070801 3.096516609191895 5.119968414306641 C 2.50074028968811 4.9837327003479 1.96904718875885 4.786776065826416 1.527685761451721 4.543641567230225 C 1.086768388748169 4.30075216293335 0.7361562848091125 4.011865139007568 0.5018455386161804 3.691486120223999 C 0.2678390145301819 3.371523380279541 0.149886429309845 3.020224809646606 0.1737616360187531 2.652007102966309 C 0.1976017504930496 2.28433084487915 0.36060830950737 1.934557557106018 0.6347296237945557 1.616837859153748 C 0.908508837223053 1.299514889717102 1.293200492858887 1.014078259468079 1.760992288589478 0.7746002674102783 C 2.228353500366211 0.5353425741195679 2.778840303421021 0.3418675065040588 3.384887456893921 0.2082229852676392 C 3.990640878677368 0.07464312016963959 4.652198314666748 0.0007703416049480438 5.34221076965332 0.0006988613167777658 C 6.032264232635498 0.0006273767212405801 6.685847759246826 0.07437260448932648 7.277138710021973 0.2078549861907959 C 7.868775844573975 0.3414160013198853 8.398324966430664 0.5348472595214844 8.839725494384766 0.774105966091156 C 9.28156566619873 1.013603925704956 9.635238647460938 1.299105525016785 9.874433517456055 1.616532564163208 C 10.11393642425537 1.934370517730713 10.23872184753418 2.284291744232178 10.22225570678711 2.652129173278809 C 10.20576667785645 3.020508527755737 10.0491828918457 3.371949195861816 9.779891014099121 3.692019939422607 C 9.510259628295898 4.012492179870605 9.127713203430176 4.30142879486084 8.659872055053711 4.544317245483398 C 8.191597938537598 4.787431716918945 7.638051986694336 4.984317779541016 7.027111053466797 5.120439052581787 C 6.415871143341064 5.256626605987549 5.747481822967529 5.331920146942139 5.050046920776367 5.331830024719238 Z" stroke="none" fill="#85e2ff"/>
    </g>
    <g id="Ellipse_6" data-name="Ellipse 6" transform="translate(731.273 2494.76)" fill="#fff">
      <path d="M6.109,0A11.187,11.187,0,0,1,8.5.254a8.339,8.339,0,0,1,1.987.692A4.568,4.568,0,0,1,11.87,1.975a2.168,2.168,0,0,1,.569,1.266,1.914,1.914,0,0,1-.4,1.273,3.8,3.8,0,0,1-1.251,1.044,7.41,7.41,0,0,1-1.919.707,10.77,10.77,0,0,1-2.392.26,11.176,11.176,0,0,1-2.422-.259,8.27,8.27,0,0,1-2-.706A4.478,4.478,0,0,1,.687,4.515,2.128,2.128,0,0,1,.145,3.242,1.94,1.94,0,0,1,.571,1.975,3.878,3.878,0,0,1,1.835.945,7.49,7.49,0,0,1,3.745.254,10.79,10.79,0,0,1,6.109,0Z" stroke="none"/>
      <path d="M 6.450960636138916 5.987027645111084 C 7.164217472076416 5.986931324005127 7.83955192565918 5.909454822540283 8.449649810791016 5.769581317901611 C 9.059372901916504 5.629792213439941 9.603644371032715 5.427750110626221 10.05540466308594 5.178474903106689 C 10.50669479370117 4.92945671081543 10.86550045013428 4.633393287658691 11.10502910614014 4.305263996124268 C 11.34423828125 3.9775710105896 11.46442699432373 3.617974758148193 11.43903923034668 3.241359233856201 C 11.41368961334229 2.865310192108154 11.2455472946167 2.507312059402466 10.9636116027832 2.181971073150635 C 10.68203449249268 1.857045650482178 10.28687381744385 1.564603447914124 9.806872367858887 1.319167256355286 C 9.327320098876953 1.073962569236755 8.76290225982666 0.8755796551704407 8.142098426818848 0.7385152578353882 C 7.52160120010376 0.6015190482139587 6.844463348388672 0.5257116556167603 6.138936996459961 0.5256385207176208 C 5.433366775512695 0.5255653262138367 4.764760971069336 0.6012421846389771 4.159732818603516 0.7381392121315002 C 3.554339170455933 0.8751189708709717 3.01230788230896 1.073458671569824 2.560500860214233 1.318666577339172 C 2.10823130607605 1.564126133918762 1.746207594871521 1.856638312339783 1.501553416252136 2.181674003601074 C 1.256575226783752 2.507140159606934 1.129219174385071 2.865293979644775 1.146844863891602 3.241512537002563 C 1.164496898651123 3.618297100067139 1.325910210609436 3.978041410446167 1.602789163589478 4.305846691131592 C 1.880024433135986 4.634072780609131 2.272945880889893 4.930185794830322 2.753006935119629 5.179201126098633 C 3.233524799346924 5.428452014923096 3.801160573959351 5.63041877746582 4.427102088928223 5.770084857940674 C 5.053357601165771 5.909821510314941 5.737659454345703 5.987123489379883 6.450960636138916 5.987027645111084 M 6.481674671173096 6.524609565734863 C 5.627341270446777 6.524744510650635 4.808411598205566 6.43241024017334 4.059416770935059 6.265396118164062 C 3.310869455337524 6.098482131958008 2.632625579833984 5.857078075408936 2.058875799179077 5.559044361114502 C 1.485777258872986 5.261349201202393 1.017204523086548 4.907293319702148 0.6869709491729736 4.514695644378662 C 0.3572442829608917 4.122700691223145 0.1655421853065491 3.692411422729492 0.1453207582235336 3.241527318954468 C 0.1251356899738312 2.791453838348389 0.2777394354343414 2.36344051361084 0.570607602596283 1.974788308143616 C 0.8630126714706421 1.586751103401184 1.295322775840759 1.237838387489319 1.835349559783936 0.9452201724052429 C 2.374716520309448 0.6529593467712402 3.021769285202026 0.4167295694351196 3.744690895080566 0.253648042678833 C 4.46709156036377 0.09068374335765839 5.265666007995605 0.0006689776200801134 6.108950138092041 0.0007757511921226978 C 6.952172756195068 0.0008825169061310589 7.760868549346924 0.09108782559633255 8.501642227172852 0.254197746515274 C 9.242853164672852 0.4174041748046875 9.916505813598633 0.6536993980407715 10.48887634277344 0.9459589123725891 C 11.06189060211182 1.238547325134277 11.53366088867188 1.587363362312317 11.87009429931641 1.975245475769043 C 12.20704174041748 2.363720417022705 12.40835380554199 2.791512727737427 12.43957614898682 3.241344451904297 C 12.47085475921631 3.691986560821533 12.32848739624023 4.122062683105469 12.04385471343994 4.513896465301514 C 11.75876998901367 4.90635347366333 11.33105182647705 5.260335922241211 10.79241943359375 5.558032035827637 C 10.25312232971191 5.856095314025879 9.602872848510742 6.097603797912598 8.873766899108887 6.264689445495605 C 8.144129753112793 6.431896209716797 7.335943698883057 6.524473667144775 6.481674671173096 6.524609565734863 Z" stroke="none" fill="#ff69ae"/>
    </g>
    <g id="Ellipse_7" data-name="Ellipse 7" transform="translate(854.021 2575.49)" fill="#fff">
      <path d="M6.109,0A11.187,11.187,0,0,1,8.5.254a8.339,8.339,0,0,1,1.987.692A4.568,4.568,0,0,1,11.87,1.975a2.168,2.168,0,0,1,.569,1.266,1.914,1.914,0,0,1-.4,1.273,3.8,3.8,0,0,1-1.251,1.044,7.41,7.41,0,0,1-1.919.707,10.77,10.77,0,0,1-2.392.26,11.176,11.176,0,0,1-2.422-.259,8.27,8.27,0,0,1-2-.706A4.478,4.478,0,0,1,.687,4.515,2.128,2.128,0,0,1,.145,3.242,1.94,1.94,0,0,1,.571,1.975,3.878,3.878,0,0,1,1.835.945,7.49,7.49,0,0,1,3.745.254,10.79,10.79,0,0,1,6.109,0Z" stroke="none"/>
      <path d="M 6.450963020324707 5.987030029296875 C 7.164219856262207 5.986933708190918 7.839554309844971 5.909457683563232 8.449651718139648 5.769583702087402 C 9.059374809265137 5.629794597625732 9.603646278381348 5.427752494812012 10.05540657043457 5.17847728729248 C 10.50669765472412 4.929458618164062 10.86550235748291 4.633395195007324 11.10503101348877 4.3052659034729 C 11.34424114227295 3.977572679519653 11.46442985534668 3.617976188659668 11.43904113769531 3.241360664367676 C 11.41369152069092 2.865311145782471 11.24555015563965 2.507313013076782 10.96361351013184 2.181972026824951 C 10.68203544616699 1.857046365737915 10.2868766784668 1.564604043960571 9.806873321533203 1.319167733192444 C 9.32732105255127 1.073962807655334 8.762903213500977 0.8755799531936646 8.142099380493164 0.7385154962539673 C 7.521602630615234 0.6015192270278931 6.844464302062988 0.5257117748260498 6.138937950134277 0.5256386399269104 C 5.433367729187012 0.525565505027771 4.764762401580811 0.6012424230575562 4.159733772277832 0.7381395101547241 C 3.554339647293091 0.8751193284988403 3.012308359146118 1.073459148406982 2.56050181388855 1.31866717338562 C 2.108231782913208 1.5641268491745 1.746208310127258 1.85663914680481 1.501554131507874 2.181674957275391 C 1.2565758228302 2.507141351699829 1.129219889640808 2.865295171737671 1.146845698356628 3.241514205932617 C 1.164497852325439 3.618298768997192 1.325911164283752 3.9780433177948 1.602790355682373 4.305848598480225 C 1.880025625228882 4.634074687957764 2.272947072982788 4.930187702178955 2.753008604049683 5.179203033447266 C 3.233526229858398 5.428454399108887 3.801162242889404 5.630421161651611 4.427103996276855 5.770087718963623 C 5.053359985351562 5.909823894500732 5.737661838531494 5.987125873565674 6.450963020324707 5.987030029296875 M 6.481677055358887 6.524612426757812 C 5.627343654632568 6.524747371673584 4.808413505554199 6.432412624359131 4.059418678283691 6.265398025512695 C 3.310871362686157 6.098484516143799 2.632627248764038 5.857080459594727 2.058877229690552 5.559046745300293 C 1.48577868938446 5.261351585388184 1.017205715179443 4.907295703887939 0.6869720220565796 4.514697551727295 C 0.3572452068328857 4.122702598571777 0.1655430197715759 3.692413091659546 0.1453214883804321 3.241528987884521 C 0.1251363307237625 2.791455268859863 0.2777399718761444 2.363441705703735 0.5706080794334412 1.974789261817932 C 0.8630131483078003 1.586751818656921 1.295323252677917 1.237838983535767 1.835350036621094 0.9452205896377563 C 2.374716997146606 0.6529596447944641 3.021770000457764 0.4167297184467316 3.744691610336304 0.2536481320858002 C 4.467092037200928 0.0906837210059166 5.265666961669922 0.0006688990979455411 6.108951091766357 0.0007756601553410292 C 6.952173709869385 0.000882413296494633 7.76086950302124 0.09108775854110718 8.501643180847168 0.2541977167129517 C 9.242854118347168 0.4174042344093323 9.916507720947266 0.653699517250061 10.48887729644775 0.9459591507911682 C 11.06189155578613 1.238547801971436 11.53366184234619 1.587363839149475 11.87009716033936 1.97524619102478 C 12.20704364776611 2.363721370697021 12.40835571289062 2.791513919830322 12.43957805633545 3.241345882415771 C 12.47085762023926 3.691987991333008 12.32848930358887 4.122064590454102 12.04385757446289 4.513898372650146 C 11.75877285003662 4.906355857849121 11.33105373382568 5.260338306427002 10.79242134094238 5.55803394317627 C 10.2531270980835 5.85609769821167 9.602874755859375 6.097606658935547 8.87376880645752 6.264691829681396 C 8.144132614135742 6.431899070739746 7.335946083068848 6.524477005004883 6.481677055358887 6.524612426757812 Z" stroke="none" fill="#fe8c54"/>
    </g>
    <g id="Ellipse_8" data-name="Ellipse 8" transform="translate(580.217 2575.49)" fill="#fff">
      <path d="M6.109,0A11.187,11.187,0,0,1,8.5.254a8.339,8.339,0,0,1,1.987.692A4.568,4.568,0,0,1,11.87,1.975a2.168,2.168,0,0,1,.569,1.266,1.914,1.914,0,0,1-.4,1.273,3.8,3.8,0,0,1-1.251,1.044,7.41,7.41,0,0,1-1.919.707,10.77,10.77,0,0,1-2.392.26,11.176,11.176,0,0,1-2.422-.259,8.27,8.27,0,0,1-2-.706A4.478,4.478,0,0,1,.687,4.515,2.128,2.128,0,0,1,.145,3.242,1.94,1.94,0,0,1,.571,1.975,3.878,3.878,0,0,1,1.835.945,7.49,7.49,0,0,1,3.745.254,10.79,10.79,0,0,1,6.109,0Z" stroke="none"/>
      <path d="M 6.450962066650391 5.987030029296875 C 7.164219379425049 5.986933708190918 7.839553356170654 5.909457683563232 8.449651718139648 5.769583702087402 C 9.059374809265137 5.629794597625732 9.603646278381348 5.427752494812012 10.05540561676025 5.17847728729248 C 10.5066967010498 4.929458618164062 10.86550140380859 4.633395195007324 11.10503005981445 4.3052659034729 C 11.34424018859863 3.977572679519653 11.46442985534668 3.617976188659668 11.43904113769531 3.241360664367676 C 11.41369152069092 2.865311145782471 11.24555015563965 2.507313013076782 10.96361351013184 2.181972026824951 C 10.68203544616699 1.857046365737915 10.28687572479248 1.564604043960571 9.806873321533203 1.319167733192444 C 9.32732105255127 1.073962807655334 8.762903213500977 0.8755799531936646 8.142099380493164 0.7385154962539673 C 7.521602630615234 0.6015192270278931 6.844464302062988 0.5257117748260498 6.138937950134277 0.5256386399269104 C 5.433367729187012 0.525565505027771 4.764762401580811 0.6012424230575562 4.159733295440674 0.7381395101547241 C 3.554339647293091 0.8751193284988403 3.012308359146118 1.073459148406982 2.560501575469971 1.31866717338562 C 2.108231782913208 1.5641268491745 1.746208071708679 1.85663914680481 1.501553893089294 2.181674957275391 C 1.256575584411621 2.507141351699829 1.129219651222229 2.865295171737671 1.14684534072876 3.241514205932617 C 1.164497375488281 3.618298768997192 1.325910687446594 3.9780433177948 1.602789878845215 4.305848598480225 C 1.880025148391724 4.634074687957764 2.27294659614563 4.930187702178955 2.753008127212524 5.179203033447266 C 3.233525514602661 5.428454399108887 3.801161766052246 5.630421161651611 4.427103042602539 5.770087718963623 C 5.053359031677246 5.909823894500732 5.737661361694336 5.987125873565674 6.450962066650391 5.987030029296875 M 6.481676578521729 6.524612426757812 C 5.62734317779541 6.524747371673584 4.808413028717041 6.432412624359131 4.059417724609375 6.265398025512695 C 3.31087064743042 6.098484516143799 2.632626533508301 5.857080459594727 2.058876514434814 5.559046745300293 C 1.485777974128723 5.261351585388184 1.017205119132996 4.907295703887939 0.6869714856147766 4.514697551727295 C 0.3572447597980499 4.122702598571777 0.1655426025390625 3.692413091659546 0.1453211307525635 3.241528987884521 C 0.1251360177993774 2.791455268859863 0.2777397036552429 2.363441705703735 0.5706079006195068 1.974789261817932 C 0.863012969493866 1.586751818656921 1.295323133468628 1.237838983535767 1.835349917411804 0.9452205896377563 C 2.374716997146606 0.6529596447944641 3.021769762039185 0.4167297184467316 3.744691610336304 0.2536481320858002 C 4.467092037200928 0.0906837210059166 5.265666961669922 0.0006688990979455411 6.108951091766357 0.0007756601553410292 C 6.952173709869385 0.000882413296494633 7.76086950302124 0.09108775854110718 8.501643180847168 0.2541977167129517 C 9.242854118347168 0.4174042344093323 9.916507720947266 0.653699517250061 10.48887729644775 0.9459591507911682 C 11.06189155578613 1.238547801971436 11.53366184234619 1.587363839149475 11.87009620666504 1.97524619102478 C 12.20704364776611 2.363721370697021 12.40835571289062 2.791513919830322 12.43957805633545 3.241345882415771 C 12.47085762023926 3.691987991333008 12.32848834991455 4.122064590454102 12.04385757446289 4.513898372650146 C 11.7587718963623 4.906355857849121 11.33105278015137 5.260338306427002 10.79242134094238 5.55803394317627 C 10.25312614440918 5.85609769821167 9.602874755859375 6.097606658935547 8.87376880645752 6.264691829681396 C 8.144131660461426 6.431899070739746 7.335945606231689 6.524477005004883 6.481676578521729 6.524612426757812 Z" stroke="none" fill="#98f3cc"/>
    </g>
    <g id="Ellipse_9" data-name="Ellipse 9" transform="translate(637.119 2706.404)" fill="#fff">
      <path d="M6.109,0A11.186,11.186,0,0,1,8.5.254a8.339,8.339,0,0,1,1.987.692A4.568,4.568,0,0,1,11.87,1.975a2.168,2.168,0,0,1,.569,1.266,1.914,1.914,0,0,1-.4,1.273,3.8,3.8,0,0,1-1.251,1.044,7.41,7.41,0,0,1-1.919.707,10.77,10.77,0,0,1-2.392.26,11.176,11.176,0,0,1-2.422-.259,8.27,8.27,0,0,1-2-.706A4.478,4.478,0,0,1,.687,4.515,2.128,2.128,0,0,1,.145,3.242,1.94,1.94,0,0,1,.571,1.975,3.878,3.878,0,0,1,1.835.945,7.49,7.49,0,0,1,3.745.254,10.79,10.79,0,0,1,6.109,0Z" stroke="none"/>
      <path d="M 6.451024532318115 5.987270355224609 C 7.164281368255615 5.987174510955811 7.839615821838379 5.909697532653809 8.449712753295898 5.769824504852295 C 9.059436798095703 5.630034923553467 9.603708267211914 5.427993297576904 10.05546760559082 5.178718090057373 C 10.50675868988037 4.929699897766113 10.86556434631348 4.633635997772217 11.10509204864502 4.305506706237793 C 11.3443021774292 3.977814197540283 11.46449089050293 3.618217706680298 11.43910217285156 3.241602420806885 C 11.41375255584717 2.865553140640259 11.2456111907959 2.507555246353149 10.96367454528809 2.182214021682739 C 10.68209648132324 1.857288599014282 10.28693771362305 1.564846396446228 9.806933403015137 1.31941020488739 C 9.32738208770752 1.07420551776886 8.762964248657227 0.8758226633071899 8.142160415649414 0.7387582659721375 C 7.521663665771484 0.601762056350708 6.844525337219238 0.5259546637535095 6.138998985290527 0.5258815288543701 C 5.433428287506104 0.5258083343505859 4.764823436737061 0.6014852523803711 4.159794330596924 0.7383822798728943 C 3.554400444030762 0.8753620386123657 3.012369394302368 1.073701739311218 2.560562610626221 1.318909645080566 C 2.108292818069458 1.564369201660156 1.746269226074219 1.856881380081177 1.501615166664124 2.181916952133179 C 1.25663697719574 2.507383346557617 1.129281044006348 2.86553692817688 1.146906852722168 3.241755723953247 C 1.164559006690979 3.618540287017822 1.325972318649292 3.97828483581543 1.602851629257202 4.306089401245117 C 1.880086898803711 4.634315490722656 2.273008346557617 4.930428981781006 2.753070116043091 5.179444789886475 C 3.233587741851807 5.428695201873779 3.801223754882812 5.630661964416504 4.427165508270264 5.770328044891357 C 5.053421497344971 5.910064220428467 5.737723350524902 5.987366676330566 6.451024532318115 5.987270355224609 M 6.481738567352295 6.524852752685547 C 5.627405166625977 6.524987697601318 4.808475017547607 6.432653427124023 4.0594801902771 6.265639305114746 C 3.310932874679565 6.098725318908691 2.632688760757446 5.857321262359619 2.05893874168396 5.559287548065186 C 1.485840082168579 5.261592388153076 1.017267107963562 4.90753698348999 0.6870333552360535 4.514938831329346 C 0.3573064804077148 4.122943878173828 0.1656042337417603 3.692654609680176 0.1453826427459717 3.241770505905151 C 0.1251974403858185 2.791697025299072 0.2778010070323944 2.363683700561523 0.5706690549850464 1.975031495094299 C 0.8630740642547607 1.586994171142578 1.295384168624878 1.238081574440002 1.835410952568054 0.9454631805419922 C 2.374777793884277 0.6532023549079895 3.021830797195435 0.4169725775718689 3.744752168655396 0.2538910508155823 C 4.46715259552002 0.09092673659324646 5.265727519989014 0.000911951472517103 6.109012126922607 0.001018716138787568 C 6.952234268188477 0.001125472947023809 7.76093053817749 0.09133078157901764 8.501703262329102 0.2544406950473785 C 9.242915153503418 0.417647123336792 9.916567802429199 0.653942346572876 10.488938331604 0.9462018609046936 C 11.06195163726807 1.238790392875671 11.53372287750244 1.587606310844421 11.87015819549561 1.975488543510437 C 12.20710468292236 2.363963603973389 12.40841674804688 2.791755676269531 12.4396390914917 3.24158763885498 C 12.47091865539551 3.692229509353638 12.32855033874512 4.122305870056152 12.04391860961914 4.514139175415039 C 11.75883483886719 4.906596660614014 11.33111476898193 5.260578632354736 10.79248332977295 5.55827522277832 C 10.25318813323975 5.856338500976562 9.602936744689941 6.097846508026123 8.87382984161377 6.264932632446289 C 8.144193649291992 6.43213939666748 7.336007595062256 6.524717330932617 6.481738567352295 6.524852752685547 Z" stroke="none" fill="#85e2ff"/>
    </g>
  </g>
</svg>
